grf
version=1
nRows=26
nColumns=28
inDegrees=yes
endheader
time	ground_force_1_vx	ground_force_1_vy	ground_force_1_vz	ground_force_1_px	ground_force_1_py	ground_force_1_pz	ground_moment_1_mx	ground_moment_1_my	ground_moment_1_mz	ground_force_2_vx	ground_force_2_vy	ground_force_2_vz	ground_force_2_px	ground_force_2_py	ground_force_2_pz	ground_moment_2_mx	ground_moment_2_my	ground_moment_2_mz	ground_force_3_vx	ground_force_3_vy	ground_force_3_vz	ground_force_3_px	ground_force_3_py	ground_force_3_pz	ground_moment_3_mx	ground_moment_3_my	ground_moment_3_mz
2.210000	4.233234	195.722078	18.735578	-0.140528	0.000000	-0.469394	-0.000000	0.510878	0.000000	0.000000	0.000000	0.000000	0.689025	-0.000000	0.039848	0.000000	0.000000	0.000000	0.000000	0.000000	0.000000	2.789194	0.000000	-1.866331	0.000000	0.000000	0.000000
2.210833	4.481197	196.450254	18.706423	-0.141059	0.000000	-0.468466	-0.000000	0.500941	0.000000	0.000000	0.000000	0.000000	0.259249	0.000000	-0.224143	0.000000	0.000000	0.000000	0.000000	0.000000	0.000000	0.951965	0.000000	-0.309243	0.000000	0.000000	0.000000
2.211667	4.732299	197.209700	18.677370	-0.139872	0.000000	-0.469753	-0.000000	0.490686	0.000000	0.000000	0.000000	0.000000	0.195680	0.000000	-0.283794	0.000000	0.000000	0.000000	0.000000	0.000000	0.000000	0.817431	0.000000	-0.376353	0.000000	0.000000	0.000000
2.212500	4.986233	198.000260	18.648388	-0.141067	0.000000	-0.469347	-0.000000	0.480132	0.000000	0.000000	0.000000	0.000000	0.129162	0.000000	-0.357226	0.000000	0.000000	0.000000	0.000000	0.000000	0.000000	1.007077	0.000000	-0.460913	0.000000	0.000000	0.000000
2.213333	5.242696	198.821741	18.619450	-0.141227	0.000000	-0.468512	-0.000000	0.469302	0.000000	0.000000	0.000000	0.000000	0.346935	0.000000	-0.043329	0.000000	0.000000	0.000000	0.000000	0.000000	0.000000	0.945887	0.000000	-0.355869	0.000000	0.000000	0.000000
2.214167	5.501384	199.673919	18.590529	-0.138375	0.000000	-0.468643	-0.000000	0.458226	0.000000	0.000000	0.000000	0.000000	-0.117744	0.000000	-0.168735	0.000000	0.000000	0.000000	0.000000	0.000000	0.000000	1.070813	-0.000000	0.100590	0.000000	0.000000	0.000000
2.215000	5.761993	200.556575	18.561594	-0.137226	0.000000	-0.469874	-0.000000	0.446928	0.000000	0.000000	0.000000	0.000000	0.350422	-0.000000	0.071350	0.000000	0.000000	0.000000	0.000000	0.000000	0.000000	0.324863	-0.000000	3.864596	0.000000	0.000000	0.000000
2.215833	6.024214	201.469532	18.532593	-0.136777	0.000000	-0.469787	-0.000000	0.435436	0.000000	0.000000	0.000000	0.000000	0.273763	0.000000	-0.791458	0.000000	0.000000	0.000000	0.000000	0.000000	0.000000	1.154396	0.000000	-0.029146	0.000000	0.000000	0.000000
2.216667	6.287734	202.412656	18.503448	-0.136076	0.000000	-0.469288	-0.000000	0.423772	0.000000	0.000000	0.000000	0.000000	0.358722	0.000000	-0.191796	0.000000	0.000000	0.000000	0.000000	0.000000	0.000000	1.032426	0.000000	-0.324670	0.000000	0.000000	0.000000
2.217500	6.552245	203.385841	18.474052	-0.136214	0.000000	-0.468792	-0.000000	0.411958	0.000000	0.000000	0.000000	0.000000	0.270770	0.000000	-0.285059	0.000000	0.000000	0.000000	0.000000	0.000000	0.000000	1.440763	0.000000	-0.817238	0.000000	0.000000	0.000000
2.218333	6.817453	204.388969	18.444289	-0.137500	0.000000	-0.468571	-0.000000	0.400019	0.000000	0.000000	0.000000	0.000000	0.162625	0.000000	-0.191339	0.000000	0.000000	0.000000	0.000000	0.000000	0.000000	0.687377	0.000000	-0.661942	0.000000	0.000000	0.000000
2.219167	7.083102	205.421864	18.414053	-0.136509	0.000000	-0.468644	-0.000000	0.387979	0.000000	0.000000	0.000000	0.000000	-0.185640	-0.000000	0.042640	0.000000	0.000000	0.000000	0.000000	0.000000	0.000000	0.882195	0.000000	-0.317186	0.000000	0.000000	0.000000
2.220000	7.348969	206.484289	18.383247	-0.136320	0.000000	-0.468696	-0.000000	0.375855	0.000000	0.000000	0.000000	0.000000	0.216650	0.000000	-0.181287	0.000000	0.000000	0.000000	0.000000	0.000000	0.000000	0.995855	0.000000	-0.337411	0.000000	0.000000	0.000000
2.220833	7.614860	207.575969	18.351775	-0.136652	0.000000	-0.468622	-0.000000	0.363660	0.000000	0.000000	0.000000	0.000000	0.300961	0.000000	-0.282985	0.000000	0.000000	0.000000	0.000000	0.000000	0.000000	0.960059	0.000000	-0.453369	0.000000	0.000000	0.000000
2.221667	7.880585	208.696622	18.319542	-0.136838	0.000000	-0.468309	-0.000000	0.351398	0.000000	0.000000	0.000000	0.000000	0.656165	-0.000000	0.586381	0.000000	0.000000	0.000000	0.000000	0.000000	0.000000	0.871908	-0.000000	0.632862	0.000000	0.000000	0.000000
2.222500	8.145945	209.845933	18.286458	-0.136333	0.000000	-0.467813	-0.000000	0.339066	0.000000	0.000000	0.000000	0.000000	0.661765	0.000000	-0.123616	0.000000	0.000000	0.000000	0.000000	0.000000	0.000000	1.120929	0.000000	-0.460179	0.000000	0.000000	0.000000
2.223333	8.410733	211.023511	18.252440	-0.135337	0.000000	-0.467866	-0.000000	0.326655	0.000000	0.000000	0.000000	0.000000	0.267276	0.000000	-0.218908	0.000000	0.000000	0.000000	0.000000	0.000000	0.000000	-2.160641	-0.000000	0.903254	0.000000	0.000000	0.000000
2.224167	8.674771	212.228865	18.217388	-0.135416	0.000000	-0.467879	-0.000000	0.314146	0.000000	0.000000	0.000000	0.000000	-0.260513	0.000000	-0.098737	0.000000	0.000000	0.000000	0.000000	0.000000	0.000000	1.267989	0.000000	-0.623613	0.000000	0.000000	0.000000
2.225000	8.937939	213.461404	18.181172	-0.135186	0.000000	-0.467861	-0.000000	0.301516	0.000000	0.000000	0.000000	0.000000	-2.299951	0.000000	-0.137514	0.000000	0.000000	0.000000	0.000000	0.000000	0.000000	0.921943	0.000000	-0.419296	0.000000	0.000000	0.000000
2.225833	9.200176	214.720454	18.143650	-0.134717	0.000000	-0.467845	-0.000000	0.288741	0.000000	0.000000	0.000000	0.000000	0.305335	0.000000	-0.185347	0.000000	0.000000	0.000000	0.000000	0.000000	0.000000	0.949561	0.000000	-0.283798	0.000000	0.000000	0.000000
2.226667	9.461476	216.005269	18.104699	-0.134491	0.000000	-0.468098	-0.000000	0.275798	0.000000	0.000000	0.000000	0.000000	-0.702962	0.000000	-1.135013	0.000000	0.000000	0.000000	0.000000	0.000000	0.000000	2.037852	-0.000000	0.228704	0.000000	0.000000	0.000000
2.227500	9.721880	217.315051	18.064209	-0.135630	0.000000	-0.470088	-0.000000	0.262668	0.000000	0.000000	0.000000	0.000000	0.371398	0.000000	-0.575015	0.000000	0.000000	0.000000	0.000000	0.000000	0.000000	0.880540	0.000000	-0.760366	0.000000	0.000000	0.000000
2.228333	9.981466	218.648988	18.022072	-0.134951	0.000000	-0.468660	-0.000000	0.249335	0.000000	0.000000	0.000000	0.000000	0.336058	0.000000	-0.570148	0.000000	0.000000	0.000000	0.000000	0.000000	0.000000	-0.580633	0.000000	-2.014680	0.000000	0.000000	0.000000
2.229167	10.240329	220.006313	17.978187	-0.134600	0.000000	-0.467616	-0.000000	0.235779	0.000000	0.000000	0.000000	0.000000	0.236876	0.000000	-0.097081	0.000000	0.000000	0.000000	0.000000	0.000000	0.000000	0.818327	-0.000000	0.094462	0.000000	0.000000	0.000000
2.230000	10.498564	221.386367	17.932466	-0.134404	0.000000	-0.467281	-0.000000	0.221986	0.000000	0.000000	0.000000	0.000000	0.796905	0.000000	-0.108930	0.000000	0.000000	0.000000	0.000000	0.000000	0.000000	0.856836	0.000000	-0.359201	0.000000	0.000000	0.000000
2.230833	10.756264	222.788597	17.884857	-0.133805	0.000000	-0.467198	-0.000000	0.207943	0.000000	0.000000	0.000000	0.000000	0.356802	0.000000	-0.101088	0.000000	0.000000	0.000000	0.000000	0.000000	0.000000	0.960909	0.000000	-0.397725	0.000000	0.000000	0.000000
